:SAMPLES-PER-SECOND 30
:FULLY-SPECIFIED
:DEGREES
1
root  9.85596 40.0947 0.822729 178.181 -86.8691 178.449
RightUpLeg  1.85914 -7.41091 -3.19771
RightLeg  2.26375 3.26031 0.042819
RightFoot  -1.67435 -0.12302 1.336
RightToes  2.91037e-010 0 -3.6325e-017
Spine  8.08273 0.209031 2.11143
Spine1  -1.49749 0.371033 -0.249909
HEad  -7.46024 -3.17903 -2.97154
LeftShoulder1  0.167849 2.0178 -3.2204
LeftArm  -20.574 3.38745 -12.9261
LeftForeArm  -1.42619 1.31529 2.14412
LeftHand  -0.0455085 3.85624 2.6512
RightShoulder  0.0677249 -2.69797 0.588783
RightArm  -7.93306 -4.44254 9.30964
RightForeArm  -5.52647 1.16551 -2.50869
RightHand  -0.275414 5.0111 -3.37427
LeftUpLeg  1.46944 8.05032 5.63706
LeftLeg  3.19427 -2.07192 0.0280611
LeftFoot  -1.60236 0.201364 -2.1828
LeftToes  -7.53974e-010 3.3384e-011 -1.25048e-011
2
root  9.84392 40.0947 0.817575 177.505 -86.9077 179.107
RightUpLeg  1.95179 -7.39891 -3.15976
RightLeg  2.17166 3.20044 0.0444868
RightFoot  -1.63489 -0.121049 1.30542
RightToes  2.91037e-010 0 -3.6325e-017
Spine  8.07136 0.159915 2.20914
Spine1  -1.42548 0.350321 -0.395798
HEad  -7.56132 -3.18905 -2.83374
LeftShoulder1  0.17522 1.93324 -3.05908
LeftArm  -20.6447 3.52784 -13.0465
LeftForeArm  -1.47723 1.29772 2.20899
LeftHand  -0.046409 3.83143 2.53249
RightShoulder  0.0677202 -2.75831 0.736797
RightArm  -7.85313 -4.33822 9.2197
RightForeArm  -5.64836 1.16794 -2.45971
RightHand  -0.27622 5.28704 -3.3103
LeftUpLeg  1.46561 8.05301 5.67181
LeftLeg  3.26133 -2.09865 0.0531602
LeftFoot  -1.61222 0.198747 -2.14211
LeftToes  -7.53974e-010 3.3384e-011 -1.25048e-011
3
root  9.832 40.0947 0.810856 177.841 -86.8826 178.75
RightUpLeg  1.97745 -7.40808 -3.17667
RightLeg  2.20234 3.22822 0.0353424
RightFoot  -1.73473 -0.128934 1.42777
RightToes  2.91037e-010 0 -3.6325e-017
Spine  8.30074 0.122466 2.46772
Spine1  -1.71027 0.405714 -0.852046
HEad  -7.47041 -3.23795 -2.76196
LeftShoulder1  0.171625 1.95168 -2.94937
LeftArm  -20.589 3.38272 -13.0121
LeftForeArm  -1.21096 1.41352 2.1847
LeftHand  -0.0480203 3.54987 2.03093
RightShoulder  0.0674751 -2.78879 0.921445
RightArm  -7.59835 -4.43631 9.11477
RightForeArm  -6.13278 1.20816 -2.3547
RightHand  -0.305155 5.72968 -3.50593
LeftUpLeg  1.4993 8.01991 5.64984
LeftLeg  3.27235 -2.0506 0.0880576
LeftFoot  -1.63974 0.199145 -2.1483
LeftToes  -7.53974e-010 3.3384e-011 -1.25048e-011
4
root  9.81711 40.0943 0.800182 178.158 -86.8556 178.405
RightUpLeg  2.02467 -7.41471 -3.17659
RightLeg  2.19661 3.26225 0.0242414
RightFoot  -1.68499 -0.119366 1.27931
RightToes  2.91037e-010 0 -3.6325e-017
Spine  8.38561 0.157267 2.59662
Spine1  -1.81275 0.494289 -1.11462
HEad  -7.33772 -3.3785 -2.7158
LeftShoulder1  0.18942 1.78418 -2.90264
LeftArm  -20.7006 3.38298 -12.9929
LeftForeArm  -0.926379 1.36655 2.24123
LeftHand  -0.0478471 3.55397 2.05773
RightShoulder  0.0663243 -2.88519 1.01716
RightArm  -7.58223 -4.54385 9.07404
RightForeArm  -6.04588 1.32051 -2.35497
RightHand  -0.311686 5.38076 -3.66922
LeftUpLeg  1.60007 7.99554 5.63579
LeftLeg  3.20282 -2.0072 0.120219
LeftFoot  -1.63766 0.198315 -2.13539
LeftToes  -7.53974e-010 3.3384e-011 -1.25048e-011
5
root  9.80714 40.093 0.796346 178.672 -86.9417 177.951
RightUpLeg  1.98619 -7.43622 -3.20114
RightLeg  2.21929 3.20828 0.0294637
RightFoot  -1.77923 -0.125564 1.37547
RightToes  2.91037e-010 0 -3.6325e-017
Spine  8.3284 0.113424 2.61269
Spine1  -1.82563 0.464855 -1.19759
HEad  -7.20123 -3.56764 -2.86239
LeftShoulder1  0.194132 1.73168 -2.83422
LeftArm  -20.7055 3.34926 -13.018
LeftForeArm  -0.779924 1.39384 2.2504
LeftHand  -0.0462223 3.23358 1.89128
RightShoulder  0.0651024 -2.9204 1.08448
RightArm  -7.57824 -4.43545 9.04252
RightForeArm  -6.13451 1.14471 -2.36399
RightHand  -0.321943 5.32555 -3.79474
LeftUpLeg  1.52379 7.95565 5.59957
LeftLeg  3.22812 -2.06864 0.123953
LeftFoot  -1.62961 0.199701 -2.15695
LeftToes  -7.53974e-010 3.3384e-011 -1.25048e-011
6
root  9.79236 40.0924 0.782275 178.554 -86.9468 178.031
RightUpLeg  2.06296 -7.41511 -3.1775
RightLeg  2.20005 3.18477 0.0167448
RightFoot  -1.81919 -0.127515 1.40575
RightToes  2.91037e-010 0 -3.6325e-017
Spine  8.3144 0.0963031 2.43355
Spine1  -1.72477 0.404282 -0.98515
HEad  -7.28268 -3.39522 -2.88443
LeftShoulder1  0.182085 1.85739 -2.95091
LeftArm  -20.6466 3.21295 -12.9582
LeftForeArm  -0.820863 1.48198 2.21032
LeftHand  -0.0472776 3.26662 1.78368
RightShoulder  0.0639932 -2.92238 1.04736
RightArm  -7.66107 -4.29604 9.06419
RightForeArm  -6.18923 1.09513 -2.37453
RightHand  -0.340094 5.71858 -3.87036
LeftUpLeg  1.61281 7.98679 5.64526
LeftLeg  3.16907 -2.11676 0.116622
LeftFoot  -1.62641 0.20245 -2.19969
LeftToes  -7.53974e-010 3.3384e-011 -1.25048e-011
7
root  9.77927 40.0919 0.770292 178.046 -86.9517 178.526
RightUpLeg  2.12139 -7.379 -3.1217
RightLeg  2.15271 3.13199 -0.000517408
RightFoot  -1.78281 -0.122828 1.33302
RightToes  2.91037e-010 0 -3.6325e-017
Spine  8.44422 0.0911655 2.40024
Spine1  -1.89238 0.383205 -0.895046
HEad  -7.20705 -3.24149 -2.87039
LeftShoulder1  0.187442 1.83435 -3.14231
LeftArm  -20.5742 3.21325 -12.7746
LeftForeArm  -0.7196 1.45462 2.1685
LeftHand  -0.0469225 3.07612 1.53235
RightShoulder  0.0631972 -2.84143 0.828353
RightArm  -7.72179 -4.47827 9.16233
RightForeArm  -5.65417 1.19809 -2.42616
RightHand  -0.303628 5.48183 -3.55573
LeftUpLeg  1.66022 8.0195 5.7018
LeftLeg  3.14652 -2.14968 0.113716
LeftFoot  -1.62335 0.202889 -2.20652
LeftToes  -7.53974e-010 3.3384e-011 -1.25048e-011
8
root  9.77083 40.0914 0.759437 177.809 -86.9204 178.79
RightUpLeg  2.11194 -7.34555 -3.08102
RightLeg  2.12574 3.12195 -0.0098383
RightFoot  -1.7968 -0.122123 1.32209
RightToes  2.91037e-010 0 -3.6325e-017
Spine  8.41122 0.0848084 2.46473
Spine1  -1.87185 0.399541 -1.02391
HEad  -7.23256 -3.34461 -2.93008
LeftShoulder1  0.185282 1.85089 -3.12126
LeftArm  -20.5728 3.15126 -12.7701
LeftForeArm  -0.881821 1.38849 2.14193
LeftHand  -0.0475681 3.31813 1.55495
RightShoulder  0.062907 -2.81499 0.914823
RightArm  -7.76726 -4.45146 9.0787
RightForeArm  -5.77767 1.19437 -2.4377
RightHand  -0.320375 5.90384 -3.61588
LeftUpLeg  1.65134 8.05204 5.74097
LeftLeg  3.15635 -2.12015 0.104916
LeftFoot  -1.64686 0.203603 -2.21762
LeftToes  -7.53974e-010 3.3384e-011 -1.25048e-011
